<svg id="Lager_1" data-name="Lager 1" xmlns="http://www.w3.org/2000/svg" viewBox="0 0 87.17 74.47"><defs><style>.cls-1{fill:#b56232;}.cls-2{fill:#45b29d;}.cls-3{fill:#efc94c;}.cls-4{fill:#e27a3f;}</style></defs><title>icon-flat3d-arrow</title><g id="shadow"><path class="cls-1" d="M87.17,38.76,60.79,3.56a1.39,1.39,0,0,0-2-.28h0l-9.67,7.25a1.39,1.39,0,0,0-.28,2h0l26.37,35.2Z"/><path class="cls-1" d="M63.94,38.76,37.56,3.56a1.39,1.39,0,0,0-2-.28h0l-9.67,7.25a1.39,1.39,0,0,0-.28,2h0L52,47.67Z"/><path class="cls-1" d="M40.55,38.76,14.18,3.56a1.39,1.39,0,0,0-2-.28h0L2.56,10.53a1.39,1.39,0,0,0-.28,2h0l26.37,35.2Z"/><path class="cls-1" d="M87.17,38.71,60.79,73.91a1.39,1.39,0,0,1-2,.28h0l-9.67-7.24a1.39,1.39,0,0,1-.28-2h0L75.27,29.8Z"/><path class="cls-1" d="M63.94,38.71,37.56,73.91a1.39,1.39,0,0,1-2,.28h0l-9.67-7.24a1.39,1.39,0,0,1-.28-2h0L52,29.8Z"/><path class="cls-1" d="M40.55,38.71,14.18,73.91a1.39,1.39,0,0,1-2,.28h0L2.56,66.95a1.39,1.39,0,0,1-.28-2h0L28.65,29.8Z"/></g><path class="cls-2" d="M87.17,35.76,60.79.56a1.39,1.39,0,0,0-2-.28h0L49.17,7.53a1.39,1.39,0,0,0-.28,2h0l26.37,35.2Z"/><path class="cls-3" d="M63.94,35.76,37.56.56a1.39,1.39,0,0,0-2-.28h0L25.94,7.53a1.39,1.39,0,0,0-.28,2h0L52,44.67Z"/><path class="cls-4" d="M40.55,35.76,14.18.56a1.39,1.39,0,0,0-2-.28h0L2.56,7.53a1.39,1.39,0,0,0-.28,2h0l26.37,35.2Z"/><path class="cls-2" d="M87.17,35.71,60.79,70.91a1.39,1.39,0,0,1-2,.28h0l-9.67-7.24a1.39,1.39,0,0,1-.28-2h0L75.27,26.8Z"/><path class="cls-3" d="M63.94,35.71,37.56,70.91a1.39,1.39,0,0,1-2,.28h0l-9.67-7.24a1.39,1.39,0,0,1-.28-2h0L52,26.8Z"/><path class="cls-4" d="M40.55,35.71,14.18,70.91a1.39,1.39,0,0,1-2,.28h0L2.56,63.95a1.39,1.39,0,0,1-.28-2h0L28.65,26.8Z"/></svg>