<svg id="Layer_1" data-name="Layer 1" xmlns="http://www.w3.org/2000/svg" viewBox="0 0 41.14 66.23"><defs><style>.cls-1{opacity:0.3;}.cls-2{fill:#fff;}</style></defs><title>icon-flat3d-bulb</title><g class="cls-1"><path d="M37,32.77c-2.77,3.05-6.43,7.35-6.75,11.65a3.86,3.86,0,0,1,1.89,3.29,3.76,3.76,0,0,1-1,2.57,3.76,3.76,0,0,1,1,2.57,3.86,3.86,0,0,1-1.81,3.25A3.92,3.92,0,0,1,30.86,58c0,2.61-2,3.86-4.38,3.86a6.45,6.45,0,0,1-11.81,0c-2.33,0-4.38-1.25-4.38-3.86a3.92,3.92,0,0,1,.52-1.89A3.86,3.86,0,0,1,9,52.85a3.76,3.76,0,0,1,1-2.57,3.76,3.76,0,0,1-1-2.57,3.86,3.86,0,0,1,1.89-3.29c-.32-4.3-4-8.6-6.75-11.65A15.46,15.46,0,0,1,0,22C0,11.07,10.41,4,20.57,4s20.57,7.07,20.57,18A15.46,15.46,0,0,1,37,32.77ZM20.57,9.14C13.3,9.14,5.14,14,5.14,22a11.45,11.45,0,0,0,2.73,7.23c.76.88,1.65,1.73,2.45,2.65,2.85,3.42,5.26,7.43,5.67,12h9.16c.4-4.54,2.81-8.56,5.67-12,.8-.92,1.69-1.77,2.45-2.65A11.45,11.45,0,0,0,36,22C36,14,27.84,9.14,20.57,9.14Zm7.71,14.14A1.32,1.32,0,0,1,27,22c0-2.77-4.3-3.86-6.43-3.86a1.29,1.29,0,0,1,0-2.57c3.74,0,9,2,9,6.43A1.32,1.32,0,0,1,28.28,23.29Z"/></g><path class="cls-2" d="M37,28.77c-2.77,3.05-6.43,7.35-6.75,11.65a3.86,3.86,0,0,1,1.89,3.29,3.76,3.76,0,0,1-1,2.57,3.76,3.76,0,0,1,1,2.57,3.86,3.86,0,0,1-1.81,3.25A3.92,3.92,0,0,1,30.86,54c0,2.61-2,3.86-4.38,3.86a6.45,6.45,0,0,1-11.81,0c-2.33,0-4.38-1.25-4.38-3.86a3.92,3.92,0,0,1,.52-1.89A3.86,3.86,0,0,1,9,48.85a3.76,3.76,0,0,1,1-2.57,3.76,3.76,0,0,1-1-2.57,3.86,3.86,0,0,1,1.89-3.29c-.32-4.3-4-8.6-6.75-11.65A15.46,15.46,0,0,1,0,18C0,7.07,10.41,0,20.57,0S41.14,7.07,41.14,18A15.46,15.46,0,0,1,37,28.77ZM20.57,5.14C13.3,5.14,5.14,10,5.14,18a11.45,11.45,0,0,0,2.73,7.23c.76.88,1.65,1.73,2.45,2.65,2.85,3.42,5.26,7.43,5.67,12h9.16c.4-4.54,2.81-8.56,5.67-12,.8-.92,1.69-1.77,2.45-2.65A11.45,11.45,0,0,0,36,18C36,10,27.84,5.14,20.57,5.14Zm7.71,14.14A1.32,1.32,0,0,1,27,18c0-2.77-4.3-3.86-6.43-3.86a1.29,1.29,0,0,1,0-2.57c3.74,0,9,2,9,6.43A1.32,1.32,0,0,1,28.28,19.29Z"/></svg>