<svg id="Layer_1" data-name="Layer 1" xmlns="http://www.w3.org/2000/svg" viewBox="0 0 38.98 69.23"><defs><style>.cls-1{opacity:0.3;}.cls-2{fill:#fff;}</style></defs><title>icon-flat3d-flash</title><g class="cls-1"><path d="M36.83,21.37,15.13,67.85a1.91,1.91,0,0,1-1.69,1,3.17,3.17,0,0,1-.56-.08,1.68,1.68,0,0,1-1.21-2l7.91-32.46L3.28,38.4a1.92,1.92,0,0,1-.48,0A2,2,0,0,1,1.55,38,1.58,1.58,0,0,1,1,36.43L9.1,3.29A1.79,1.79,0,0,1,10.87,2H24.05a1.75,1.75,0,0,1,1.81,1.69,1.64,1.64,0,0,1-.2.72L18.79,23,34.7,19.08a2,2,0,0,1,.48-.08,2,2,0,0,1,1.37.6A1.59,1.59,0,0,1,36.83,21.37Z"/></g><path class="cls-2" d="M38.83,19.37,17.13,65.85a1.91,1.91,0,0,1-1.69,1,3.17,3.17,0,0,1-.56-.08,1.68,1.68,0,0,1-1.21-2l7.91-32.46L5.28,36.4a1.92,1.92,0,0,1-.48,0A2,2,0,0,1,3.55,36,1.58,1.58,0,0,1,3,34.43L11.1,1.29A1.79,1.79,0,0,1,12.87,0H26.05a1.75,1.75,0,0,1,1.81,1.69,1.64,1.64,0,0,1-.2.72L20.79,21,36.7,17.08a2,2,0,0,1,.48-.08,2,2,0,0,1,1.37.6A1.59,1.59,0,0,1,38.83,19.37Z"/></svg>