<?xml version="1.0" encoding="utf-8"?>
<!-- Generator: Adobe Illustrator 21.0.2, SVG Export Plug-In . SVG Version: 6.00 Build 0)  -->
<svg version="1.1" id="Layer_1" xmlns="http://www.w3.org/2000/svg" xmlns:xlink="http://www.w3.org/1999/xlink" x="0px" y="0px"
	 viewBox="0 0 61.7 54.1" style="enable-background:new 0 0 61.7 54.1;" xml:space="preserve">
<style type="text/css">
	.st0{clip-path:url(#SVGID_2_);}
	.st1{clip-path:url(#SVGID_4_);}
	.st2{clip-path:url(#SVGID_6_);}
	.st3{clip-path:url(#SVGID_8_);fill:#FFFFFF;}
</style>
<g id="x">
	<g id="Artwork_1">
		<g>
			<defs>
				<rect id="SVGID_1_" x="5.3" y="3.7" width="50.8" height="50.8"/>
			</defs>
			<clipPath id="SVGID_2_">
				<use xlink:href="#SVGID_1_"  style="overflow:visible;"/>
			</clipPath>
			<g class="st0">
				<defs>
					<rect id="SVGID_3_" x="5.3" y="3.7" width="50.8" height="50.8"/>
				</defs>
				<clipPath id="SVGID_4_">
					<use xlink:href="#SVGID_3_"  style="overflow:visible;"/>
				</clipPath>
				<path class="st1" d="M54.8,46.3L49,52.1c-0.8,0.8-1.8,1.2-2.9,1.2c-1.1,0-2.1-0.4-2.9-1.2L30.6,39.5L18.1,52.1
					c-0.8,0.8-1.8,1.2-2.9,1.2c-1.1,0-2.1-0.4-2.9-1.2l-5.8-5.8c-0.8-0.8-1.2-1.8-1.2-2.9c0-1.1,0.4-2.1,1.2-2.9L19,27.9L6.5,15.3
					c-0.8-0.8-1.2-1.8-1.2-2.9c0-1.1,0.4-2.1,1.2-2.9l5.8-5.8c0.8-0.8,1.8-1.2,2.9-1.2c1.1,0,2.1,0.4,2.9,1.2l12.6,12.6L43.2,3.7
					C44,2.9,45,2.5,46.1,2.5c1.1,0,2.1,0.4,2.9,1.2l5.8,5.8c0.8,0.8,1.2,1.8,1.2,2.9c0,1.1-0.4,2.1-1.2,2.9L42.3,27.9l12.6,12.6
					c0.8,0.8,1.2,1.8,1.2,2.9C56,44.4,55.6,45.5,54.8,46.3"/>
			</g>
		</g>
	</g>
	<g id="Artwork_1_1_">
		<g>
			<defs>
				<rect id="SVGID_5_" x="5.3" y="0.1" width="50.8" height="50.8"/>
			</defs>
			<clipPath id="SVGID_6_">
				<use xlink:href="#SVGID_5_"  style="overflow:visible;"/>
			</clipPath>
			<g class="st2">
				<defs>
					<rect id="SVGID_7_" x="5.3" y="0.1" width="50.8" height="50.8"/>
				</defs>
				<clipPath id="SVGID_8_">
					<use xlink:href="#SVGID_7_"  style="overflow:visible;"/>
				</clipPath>
				<path class="st3" d="M54.8,43.8L49,49.6c-0.8,0.8-1.8,1.2-2.9,1.2c-1.1,0-2.1-0.4-2.9-1.2L30.6,37.1L18.1,49.6
					c-0.8,0.8-1.8,1.2-2.9,1.2c-1.1,0-2.1-0.4-2.9-1.2l-5.8-5.8c-0.8-0.8-1.2-1.8-1.2-2.9s0.4-2.1,1.2-2.9L19,25.5L6.5,12.9
					c-0.8-0.8-1.2-1.8-1.2-2.9c0-1.1,0.4-2.1,1.2-2.9l5.8-5.8c0.8-0.8,1.8-1.2,2.9-1.2c1.1,0,2.1,0.4,2.9,1.2l12.6,12.6L43.2,1.3
					C44,0.5,45,0.1,46.1,0.1c1.1,0,2.1,0.4,2.9,1.2l5.8,5.8C55.6,7.9,56,8.9,56,10c0,1.1-0.4,2.1-1.2,2.9L42.3,25.5L54.8,38
					c0.8,0.8,1.2,1.8,1.2,2.9S55.6,43.1,54.8,43.8"/>
			</g>
		</g>
	</g>
</g>
</svg>
