<svg id="Layer_1" data-name="Layer 1" xmlns="http://www.w3.org/2000/svg" viewBox="0 0 61.71 64.23"><defs><style>.cls-1{opacity:0.2;}.cls-2{fill:#fff;}</style></defs><title>icon-flat3d-bullseye</title><g class="cls-1"><path d="M30.86,63.71A30.86,30.86,0,1,1,61.71,32.86,30.86,30.86,0,0,1,30.86,63.71Zm0-56.57A25.71,25.71,0,1,0,56.57,32.86,25.74,25.74,0,0,0,30.86,7.14Zm0,46.28A20.57,20.57,0,1,1,51.43,32.86,20.56,20.56,0,0,1,30.86,53.43Zm0-36A15.43,15.43,0,1,0,46.28,32.86,15.43,15.43,0,0,0,30.86,17.43Zm0,25.71A10.29,10.29,0,1,1,41.14,32.86,10.3,10.3,0,0,1,30.86,43.14Z"/></g><path class="cls-2" d="M30.86,61.71A30.86,30.86,0,1,1,61.71,30.86,30.86,30.86,0,0,1,30.86,61.71Zm0-56.57A25.71,25.71,0,1,0,56.57,30.86,25.74,25.74,0,0,0,30.86,5.14Zm0,46.28A20.57,20.57,0,1,1,51.43,30.86,20.56,20.56,0,0,1,30.86,51.43Zm0-36A15.43,15.43,0,1,0,46.28,30.86,15.43,15.43,0,0,0,30.86,15.43Zm0,25.71A10.29,10.29,0,1,1,41.14,30.86,10.3,10.3,0,0,1,30.86,41.14Z"/></svg>