<svg xmlns="http://www.w3.org/2000/svg" viewBox="0 0 59.36 18.18"><defs><style>.cls-1{fill:#fff;}</style></defs><title>asap-logo-02</title><g id="Layer_2" data-name="Layer 2"><g id="logo-att-04"><g id="logo-att-04-2" data-name="logo-att-04"><path class="cls-1" d="M1.1,12.72A4.67,4.67,0,0,1,0,9.38,3.5,3.5,0,0,1,1.55,6.19a8.38,8.38,0,0,1,4.51-1H7.75a4.12,4.12,0,0,0-.29-2c-.2-.29-.64-.44-1.32-.44A13,13,0,0,0,3.86,3a26.34,26.34,0,0,0-2.79.68L.34,1.18A13.17,13.17,0,0,1,3,.37,14.7,14.7,0,0,1,6.08,0a5.26,5.26,0,0,1,4,1.28A5.24,5.24,0,0,1,11.26,5v8.59H9l-.45-1.47H8.45l-.71.5a10.47,10.47,0,0,1-1.66.78,6.05,6.05,0,0,1-2.21.49A3.66,3.66,0,0,1,1.1,12.72ZM7.75,7.8a15.64,15.64,0,0,0-2.11-.11A2.77,2.77,0,0,0,3.95,8a1.72,1.72,0,0,0-.37,1.29,2.14,2.14,0,0,0,.31,1.32,1.14,1.14,0,0,0,.94.37,5.71,5.71,0,0,0,2.49-.63l.45-.23Z"/><path class="cls-1" d="M19.69,2.8A2,2,0,0,0,18.57,3a.79.79,0,0,0-.26.65,1,1,0,0,0,.38.76,2.64,2.64,0,0,0,.77.47q.38.15.89.29l1.51.44a8.47,8.47,0,0,1,1.59.61A3.3,3.3,0,0,1,25.2,9.34a4.29,4.29,0,0,1-1.31,3.33,5.26,5.26,0,0,1-3.68,1.2,11.14,11.14,0,0,1-2.6-.33,14.07,14.07,0,0,1-2.1-.65l-.72-.34.86-2.76A12.71,12.71,0,0,0,20.35,11a1.75,1.75,0,0,0,1-.25,1.05,1.05,0,0,0,.34-.9,1,1,0,0,0-.14-.59L21.36,9a1.06,1.06,0,0,0-.27-.2l-.31-.16-.37-.15L20,8.36l-.45-.13L18.87,8l-.6-.19-.8-.29a4,4,0,0,1-.84-.4L16,6.63a2.07,2.07,0,0,1-.6-.69,4.59,4.59,0,0,1-.47-2,3.6,3.6,0,0,1,1.24-2.9A5.64,5.64,0,0,1,19.86,0a15,15,0,0,1,4.78.77l-.52,2.71A18.09,18.09,0,0,0,19.69,2.8Z"/><path class="cls-1" d="M29.15,12.72a4.67,4.67,0,0,1-1.1-3.35,3.5,3.5,0,0,1,1.55-3.19,8.38,8.38,0,0,1,4.51-1h1.69a4.12,4.12,0,0,0-.29-2c-.2-.29-.64-.44-1.32-.44A13,13,0,0,0,31.91,3a26.34,26.34,0,0,0-2.79.68L28.4,1.18a13.17,13.17,0,0,1,2.66-.8A14.7,14.7,0,0,1,34.14,0a5.26,5.26,0,0,1,4,1.28A5.24,5.24,0,0,1,39.31,5v8.59H37.1l-.45-1.47h-.14l-.71.5a10.47,10.47,0,0,1-1.66.78,6.05,6.05,0,0,1-2.21.49A3.66,3.66,0,0,1,29.15,12.72ZM35.81,7.8a15.64,15.64,0,0,0-2.11-.11A2.77,2.77,0,0,0,32,8a1.72,1.72,0,0,0-.37,1.29,2.14,2.14,0,0,0,.31,1.32,1.14,1.14,0,0,0,.94.37,5.71,5.71,0,0,0,2.49-.63l.45-.23Z"/><path class="cls-1" d="M52.81,1.66A3.8,3.8,0,0,0,49.63,0a7.69,7.69,0,0,0-4.31,1.65h-.11L44.8.29H42.57v15L0,17.18v1H46.07v-3h0V13.67a16,16,0,0,0,2.4.2,5.71,5.71,0,0,0,3.1-.84Q54,11.44,54,6.71A8.47,8.47,0,0,0,52.81,1.66Zm-3.22,9.07a2.37,2.37,0,0,1-1.4.29,7.54,7.54,0,0,1-2.12-.32V3.89l.45-.2A5.88,5.88,0,0,1,49.07,3a1,1,0,0,1,.9.43,7,7,0,0,1,.43,3.16Q50.41,10.22,49.59,10.73Z"/></g><path class="cls-1" d="M56.77,18.18V16h2.59v2.14Zm2.06-4.56H57.3L56.95,0h2.23Z"/></g></g></svg>