<svg id="Layer_1" data-name="Layer 1" xmlns="http://www.w3.org/2000/svg" viewBox="0 0 58.97 23.07"><defs><style>.cls-1{fill:none;stroke:#fff;stroke-miterlimit:10;stroke-width:2px;}.cls-2{fill:#fff;}</style></defs><title>asap-logo</title><g id="logo-att-01"><line class="cls-1" y1="22.07" x2="58.97" y2="22.04"/><g id="asap"><path class="cls-2" d="M1.1,14.38A4.67,4.67,0,0,1,0,11,3.5,3.5,0,0,1,1.55,7.85a8.38,8.38,0,0,1,4.51-1H7.75a4.12,4.12,0,0,0-.29-2c-.2-.29-.64-.44-1.32-.44a13,13,0,0,0-2.28.23,26.34,26.34,0,0,0-2.79.68L.34,2.83A13.17,13.17,0,0,1,3,2a14.7,14.7,0,0,1,3.08-.37,5.26,5.26,0,0,1,4,1.28,5.24,5.24,0,0,1,1.2,3.72v8.59H9l-.45-1.47H8.45l-.71.5A10.47,10.47,0,0,1,6.08,15a6.05,6.05,0,0,1-2.21.49A3.66,3.66,0,0,1,1.1,14.38ZM7.75,9.45a15.64,15.64,0,0,0-2.11-.11,2.77,2.77,0,0,0-1.69.34A1.72,1.72,0,0,0,3.57,11a2.14,2.14,0,0,0,.31,1.32,1.14,1.14,0,0,0,.94.37A5.71,5.71,0,0,0,7.3,12l.45-.23Z"/><path class="cls-2" d="M18.69,4.46a2,2,0,0,0-1.12.21.79.79,0,0,0-.26.65,1,1,0,0,0,.38.76,2.64,2.64,0,0,0,.77.47q.38.15.89.29l1.51.44a8.47,8.47,0,0,1,1.59.61A3.3,3.3,0,0,1,24.2,11a4.29,4.29,0,0,1-1.31,3.33,5.26,5.26,0,0,1-3.68,1.2,11.14,11.14,0,0,1-2.6-.33,14.07,14.07,0,0,1-2.1-.65l-.72-.34.86-2.76a12.71,12.71,0,0,0,4.7,1.22,1.75,1.75,0,0,0,1-.25,1.05,1.05,0,0,0,.34-.9,1,1,0,0,0-.14-.59l-.23-.28a1.06,1.06,0,0,0-.27-.2l-.31-.16-.37-.15L19,10l-.45-.13-.71-.22-.6-.19-.8-.29a4,4,0,0,1-.84-.4L15,8.29a2.07,2.07,0,0,1-.6-.69,4.59,4.59,0,0,1-.47-2,3.6,3.6,0,0,1,1.24-2.9,5.64,5.64,0,0,1,3.72-1.05,15,15,0,0,1,4.78.77l-.52,2.71A18.09,18.09,0,0,0,18.69,4.46Z"/><path class="cls-2" d="M27.15,14.38A4.67,4.67,0,0,1,26.06,11,3.5,3.5,0,0,1,27.6,7.85a8.38,8.38,0,0,1,4.51-1h1.69a4.12,4.12,0,0,0-.29-2c-.2-.29-.64-.44-1.32-.44a13,13,0,0,0-2.28.23,26.34,26.34,0,0,0-2.79.68L26.4,2.83A13.17,13.17,0,0,1,29.05,2a14.7,14.7,0,0,1,3.08-.37,5.26,5.26,0,0,1,4,1.28,5.24,5.24,0,0,1,1.2,3.72v8.59H35.1l-.45-1.47h-.14l-.71.5a10.47,10.47,0,0,1-1.66.78,6.05,6.05,0,0,1-2.21.49A3.66,3.66,0,0,1,27.15,14.38Zm6.66-4.93a15.64,15.64,0,0,0-2.11-.11A2.77,2.77,0,0,0,30,9.68,1.72,1.72,0,0,0,29.63,11a2.14,2.14,0,0,0,.31,1.32,1.14,1.14,0,0,0,.94.37A5.71,5.71,0,0,0,33.36,12l.45-.23Z"/><path class="cls-2" d="M43.07,19h-3.5v-17H41.8l.41,1.36h.11a7.69,7.69,0,0,1,4.31-1.65,3.8,3.8,0,0,1,3.19,1.66A8.47,8.47,0,0,1,51,8.36q0,4.73-2.49,6.33a5.71,5.71,0,0,1-3.1.84,16,16,0,0,1-2.4-.2ZM47,5.11a1,1,0,0,0-.9-.43,5.88,5.88,0,0,0-2.55.65l-.45.2v6.82a7.54,7.54,0,0,0,2.12.32,2.37,2.37,0,0,0,1.4-.29q.81-.52.81-4.11A7,7,0,0,0,47,5.11Z"/><g id="exl"><path class="cls-2" d="M58.59,10.15a.82.82,0,0,1-.81.78H54.66a.82.82,0,0,1-.81-.78L53.51.78A.76.76,0,0,1,54.27,0h3.91a.76.76,0,0,1,.76.78Zm0,6.25a.79.79,0,0,1-.78.78H54.66a.79.79,0,0,1-.78-.78V13.67a.79.79,0,0,1,.78-.78h3.12a.79.79,0,0,1,.78.78Z"/></g></g></g></svg>