<svg xmlns="http://www.w3.org/2000/svg" width="101" height="81" viewBox="0 0 101 81">
  <metadata><?xpacket begin="﻿" id="W5M0MpCehiHzreSzNTczkc9d"?>
<x:xmpmeta xmlns:x="adobe:ns:meta/" x:xmptk="Adobe XMP Core 5.6-c138 79.159824, 2016/09/14-01:09:01        ">
   <rdf:RDF xmlns:rdf="http://www.w3.org/1999/02/22-rdf-syntax-ns#">
      <rdf:Description rdf:about=""/>
   </rdf:RDF>
</x:xmpmeta>
                                                                                                    
                                                                                                    
                                                                                                    
                                                                                                    
                                                                                                    
                                                                                                    
                                                                                                    
                                                                                                    
                                                                                                    
                                                                                                    
                                                                                                    
                                                                                                    
                                                                                                    
                                                                                                    
                                                                                                    
                                                                                                    
                                                                                                    
                                                                                                    
                                                                                                    
                                                                                                    
                           
<?xpacket end="w"?></metadata>
<defs>
    <style>
      .cls-1 {
        fill: #45b29d;
        fill-rule: evenodd;
      }
    </style>
  </defs>
  <path id="icon-quote" class="cls-1" d="M83.557,78.945A22.314,22.314,0,0,0,92,73.487a24.529,24.529,0,0,0,5.05-9.176,56.788,56.788,0,0,0,2.525-11.628q0.629-5.851.947-14.4Q101,22.784,101,0H60.6V40.5H80.8q0,10.76-4.655,15.5T60.6,60.752L70.7,81A35.557,35.557,0,0,0,83.557,78.945Zm-60.6,0A22.314,22.314,0,0,0,31.4,73.487a24.529,24.529,0,0,0,5.05-9.176,56.788,56.788,0,0,0,2.525-11.628q0.629-5.851.947-14.4Q40.4,22.784,40.4,0H0V40.5H20.2q0,10.76-4.655,15.5T0,60.752L10.1,81A35.556,35.556,0,0,0,22.957,78.945Z"/>
</svg>
