<svg id="Layer_1" data-name="Layer 1" xmlns="http://www.w3.org/2000/svg" viewBox="0 0 61.71 54.09"><defs><style>.cls-1{fill:#333;}.cls-2{fill:#fff;}</style></defs><title>icon-hamburger</title><path class="cls-1" d="M61.71,9.71a2.59,2.59,0,0,1-2.57,2.57H2.57A2.59,2.59,0,0,1,0,9.71V4.57A2.59,2.59,0,0,1,2.57,2H59.14a2.59,2.59,0,0,1,2.57,2.57Zm0,20.57a2.59,2.59,0,0,1-2.57,2.57H2.57A2.59,2.59,0,0,1,0,30.28V25.14a2.59,2.59,0,0,1,2.57-2.57H59.14a2.59,2.59,0,0,1,2.57,2.57Zm0,20.57a2.59,2.59,0,0,1-2.57,2.57H2.57A2.59,2.59,0,0,1,0,50.85V45.71a2.59,2.59,0,0,1,2.57-2.57H59.14a2.59,2.59,0,0,1,2.57,2.57Z"/><path class="cls-2" d="M61.71,7.71a2.59,2.59,0,0,1-2.57,2.57H2.57A2.59,2.59,0,0,1,0,7.71V2.57A2.59,2.59,0,0,1,2.57,0H59.14a2.59,2.59,0,0,1,2.57,2.57Zm0,20.57a2.59,2.59,0,0,1-2.57,2.57H2.57A2.59,2.59,0,0,1,0,28.28V23.14a2.59,2.59,0,0,1,2.57-2.57H59.14a2.59,2.59,0,0,1,2.57,2.57Zm0,20.57a2.59,2.59,0,0,1-2.57,2.57H2.57A2.59,2.59,0,0,1,0,48.85V43.71a2.59,2.59,0,0,1,2.57-2.57H59.14a2.59,2.59,0,0,1,2.57,2.57Z"/></svg>